<?xml version="1.0" encoding="UTF-8" standalone="no"?>
<!DOCTYPE svg PUBLIC "-//W3C//DTD SVG 1.1//EN"
 "http://www.w3.org/Graphics/SVG/1.1/DTD/svg11.dtd">
<!-- Generated by graphviz version 2.47.0 (20210316.0004)
 -->
<!-- Title: dependencies Pages: 1 -->
<svg width="776pt" height="284pt"
 viewBox="0.00 0.00 776.00 284.00" xmlns="http://www.w3.org/2000/svg" xmlns:xlink="http://www.w3.org/1999/xlink">
<g id="graph0" class="graph" transform="scale(1 1) rotate(0) translate(4 280)">
<title>dependencies</title>
<polygon fill="white" stroke="transparent" points="-4,4 -4,-280 772,-280 772,4 -4,4"/>
<text text-anchor="start" x="363.01" y="-42.4" font-family="Times-12" font-weight="bold" font-size="14.00">Legend</text>
<polygon fill="#ffffb3" stroke="transparent" points="150,-10 150,-30 170,-30 170,-10 150,-10"/>
<text text-anchor="start" x="173.63" y="-15.4" font-family="Times-12" font-size="14.00"> &#160;Declarations</text>
<polygon fill="#8dd3c7" stroke="transparent" points="263,-10 263,-30 283,-30 283,-10 263,-10"/>
<text text-anchor="start" x="286.73" y="-15.4" font-family="Times-12" font-size="14.00"> &#160;Module</text>
<polygon fill="#80b1d3" stroke="transparent" points="349,-10 349,-30 369,-30 369,-10 349,-10"/>
<text text-anchor="start" x="372.78" y="-15.4" font-family="Times-12" font-size="14.00"> &#160;Bootstrap</text>
<polygon fill="#fdb462" stroke="transparent" points="446,-10 446,-30 466,-30 466,-10 446,-10"/>
<text text-anchor="start" x="469.67" y="-15.4" font-family="Times-12" font-size="14.00"> &#160;Providers</text>
<polygon fill="#fb8072" stroke="transparent" points="542,-10 542,-30 562,-30 562,-10 542,-10"/>
<text text-anchor="start" x="565.73" y="-15.4" font-family="Times-12" font-size="14.00"> &#160;Exports</text>
<g id="clust1" class="cluster">
<title>cluster_AppModule</title>
<polygon fill="none" stroke="black" stroke-dasharray="1,5" points="8,-70 8,-268 760,-268 760,-70 8,-70"/>
</g>
<g id="clust7" class="cluster">
<title>cluster_AppModule_providers</title>
<polygon fill="none" stroke="black" points="540,-78 540,-130 752,-130 752,-78 540,-78"/>
</g>
<g id="clust2" class="cluster">
<title>cluster_AppModule_declarations</title>
<polygon fill="none" stroke="black" points="410,-78 410,-130 532,-130 532,-78 410,-78"/>
</g>
<g id="clust4" class="cluster">
<title>cluster_AppModule_imports</title>
<polygon fill="none" stroke="black" points="16,-78 16,-130 402,-130 402,-78 16,-78"/>
</g>
<g id="clust6" class="cluster">
<title>cluster_AppModule_bootstrap</title>
<polygon fill="none" stroke="black" points="268,-208 268,-260 392,-260 392,-208 268,-208"/>
</g>
<!-- AppComponent -->
<g id="node1" class="node">
<title>AppComponent</title>
<polygon fill="#ffffb3" stroke="black" points="523.94,-122 418.06,-122 418.06,-86 523.94,-86 523.94,-122"/>
<text text-anchor="middle" x="471" y="-99.8" font-family="Times,serif" font-size="14.00">AppComponent</text>
</g>
<!-- AppModule -->
<g id="node2" class="node">
<title>AppModule</title>
<polygon fill="#8dd3c7" stroke="black" points="371.66,-187 368.66,-191 347.66,-191 344.66,-187 288.34,-187 288.34,-151 371.66,-151 371.66,-187"/>
<text text-anchor="middle" x="330" y="-164.8" font-family="Times,serif" font-size="14.00">AppModule</text>
</g>
<!-- AppComponent&#45;&gt;AppModule -->
<g id="edge1" class="edge">
<title>AppComponent&#45;&gt;AppModule</title>
<path fill="none" stroke="black" d="M471,-122.02C471,-139.37 471,-163 471,-163 471,-163 381.92,-163 381.92,-163"/>
<polygon fill="black" stroke="black" points="381.92,-159.5 371.92,-163 381.92,-166.5 381.92,-159.5"/>
</g>
<!-- AppComponent  -->
<g id="node6" class="node">
<title>AppComponent </title>
<polygon fill="#80b1d3" stroke="black" points="384.44,-252 275.56,-252 275.56,-216 384.44,-216 384.44,-252"/>
<text text-anchor="middle" x="330" y="-229.8" font-family="Times,serif" font-size="14.00">AppComponent </text>
</g>
<!-- AppModule&#45;&gt;AppComponent  -->
<g id="edge5" class="edge">
<title>AppModule&#45;&gt;AppComponent </title>
<path fill="none" stroke="black" stroke-dasharray="1,5" d="M330,-187.11C330,-187.11 330,-205.99 330,-205.99"/>
<polygon fill="black" stroke="black" points="326.5,-205.99 330,-215.99 333.5,-205.99 326.5,-205.99"/>
</g>
<!-- AppRoutingModule -->
<g id="node3" class="node">
<title>AppRoutingModule</title>
<polygon fill="#8dd3c7" stroke="black" points="394.27,-122 391.27,-126 370.27,-126 367.27,-122 265.73,-122 265.73,-86 394.27,-86 394.27,-122"/>
<text text-anchor="middle" x="330" y="-99.8" font-family="Times,serif" font-size="14.00">AppRoutingModule</text>
</g>
<!-- AppRoutingModule&#45;&gt;AppModule -->
<g id="edge2" class="edge">
<title>AppRoutingModule&#45;&gt;AppModule</title>
<path fill="none" stroke="black" d="M330,-122.11C330,-122.11 330,-140.99 330,-140.99"/>
<polygon fill="black" stroke="black" points="326.5,-140.99 330,-150.99 333.5,-140.99 326.5,-140.99"/>
</g>
<!-- FeaturesModule -->
<g id="node4" class="node">
<title>FeaturesModule</title>
<polygon fill="#8dd3c7" stroke="black" points="247.47,-122 244.47,-126 223.47,-126 220.47,-122 140.53,-122 140.53,-86 247.47,-86 247.47,-122"/>
<text text-anchor="middle" x="194" y="-99.8" font-family="Times,serif" font-size="14.00">FeaturesModule</text>
</g>
<!-- FeaturesModule&#45;&gt;AppModule -->
<g id="edge3" class="edge">
<title>FeaturesModule&#45;&gt;AppModule</title>
<path fill="none" stroke="black" d="M194,-122.02C194,-139.37 194,-163 194,-163 194,-163 278.09,-163 278.09,-163"/>
<polygon fill="black" stroke="black" points="278.09,-166.5 288.09,-163 278.09,-159.5 278.09,-166.5"/>
</g>
<!-- SharedModule -->
<g id="node5" class="node">
<title>SharedModule</title>
<polygon fill="#8dd3c7" stroke="black" points="122.42,-122 119.42,-126 98.42,-126 95.42,-122 23.58,-122 23.58,-86 122.42,-86 122.42,-122"/>
<text text-anchor="middle" x="73" y="-99.8" font-family="Times,serif" font-size="14.00">SharedModule</text>
</g>
<!-- SharedModule&#45;&gt;AppModule -->
<g id="edge4" class="edge">
<title>SharedModule&#45;&gt;AppModule</title>
<path fill="none" stroke="black" d="M73,-122.28C73,-143.32 73,-175 73,-175 73,-175 278.14,-175 278.14,-175"/>
<polygon fill="black" stroke="black" points="278.14,-178.5 288.14,-175 278.14,-171.5 278.14,-178.5"/>
</g>
<!-- AddHeaderInterceptor -->
<g id="node7" class="node">
<title>AddHeaderInterceptor</title>
<ellipse fill="#fdb462" stroke="black" cx="646" cy="-104" rx="97.79" ry="18"/>
<text text-anchor="middle" x="646" y="-99.8" font-family="Times,serif" font-size="14.00">AddHeaderInterceptor</text>
</g>
<!-- AddHeaderInterceptor&#45;&gt;AppModule -->
<g id="edge6" class="edge">
<title>AddHeaderInterceptor&#45;&gt;AppModule</title>
<path fill="none" stroke="black" d="M646,-122.28C646,-143.32 646,-175 646,-175 646,-175 381.96,-175 381.96,-175"/>
<polygon fill="black" stroke="black" points="381.96,-171.5 371.96,-175 381.96,-178.5 381.96,-171.5"/>
</g>
</g>
</svg>
