<?xml version="1.0" encoding="UTF-8" standalone="no"?>
<!DOCTYPE svg PUBLIC "-//W3C//DTD SVG 1.1//EN"
 "http://www.w3.org/Graphics/SVG/1.1/DTD/svg11.dtd">
<!-- Generated by graphviz version 2.47.0 (20210316.0004)
 -->
<!-- Title: dependencies Pages: 1 -->
<svg width="3567pt" height="366pt"
 viewBox="0.00 0.00 3567.00 366.00" xmlns="http://www.w3.org/2000/svg" xmlns:xlink="http://www.w3.org/1999/xlink">
<g id="graph0" class="graph" transform="scale(1 1) rotate(0) translate(4 362)">
<title>dependencies</title>
<polygon fill="white" stroke="transparent" points="-4,4 -4,-362 3563,-362 3563,4 -4,4"/>
<text text-anchor="start" x="1758.51" y="-42.4" font-family="Times-12" font-weight="bold" font-size="14.00">Legend</text>
<polygon fill="#ffffb3" stroke="transparent" points="1545.5,-10 1545.5,-30 1565.5,-30 1565.5,-10 1545.5,-10"/>
<text text-anchor="start" x="1569.13" y="-15.4" font-family="Times-12" font-size="14.00"> &#160;Declarations</text>
<polygon fill="#8dd3c7" stroke="transparent" points="1658.5,-10 1658.5,-30 1678.5,-30 1678.5,-10 1658.5,-10"/>
<text text-anchor="start" x="1682.23" y="-15.4" font-family="Times-12" font-size="14.00"> &#160;Module</text>
<polygon fill="#80b1d3" stroke="transparent" points="1744.5,-10 1744.5,-30 1764.5,-30 1764.5,-10 1744.5,-10"/>
<text text-anchor="start" x="1768.28" y="-15.4" font-family="Times-12" font-size="14.00"> &#160;Bootstrap</text>
<polygon fill="#fdb462" stroke="transparent" points="1841.5,-10 1841.5,-30 1861.5,-30 1861.5,-10 1841.5,-10"/>
<text text-anchor="start" x="1865.17" y="-15.4" font-family="Times-12" font-size="14.00"> &#160;Providers</text>
<polygon fill="#fb8072" stroke="transparent" points="1937.5,-10 1937.5,-30 1957.5,-30 1957.5,-10 1937.5,-10"/>
<text text-anchor="start" x="1961.23" y="-15.4" font-family="Times-12" font-size="14.00"> &#160;Exports</text>
<g id="clust1" class="cluster">
<title>cluster_AppModule</title>
<polygon fill="none" stroke="black" stroke-dasharray="1,5" points="320,-70 320,-350 947,-350 947,-70 320,-70"/>
</g>
<g id="clust2" class="cluster">
<title>cluster_AppModule_declarations</title>
<polygon fill="none" stroke="black" points="817,-154 817,-206 939,-206 939,-154 817,-154"/>
</g>
<g id="clust4" class="cluster">
<title>cluster_AppModule_imports</title>
<polygon fill="none" stroke="black" points="548,-78 548,-206 809,-206 809,-78 548,-78"/>
</g>
<g id="clust6" class="cluster">
<title>cluster_AppModule_bootstrap</title>
<polygon fill="none" stroke="black" points="619,-290 619,-342 743,-342 743,-290 619,-290"/>
</g>
<g id="clust7" class="cluster">
<title>cluster_AppModule_providers</title>
<polygon fill="none" stroke="black" points="328,-154 328,-206 540,-206 540,-154 328,-154"/>
</g>
<g id="clust14" class="cluster">
<title>cluster_AuthModule</title>
<polygon fill="none" stroke="black" stroke-dasharray="1,5" points="2096,-70 2096,-282 2682,-282 2682,-70 2096,-70"/>
</g>
<g id="clust15" class="cluster">
<title>cluster_AuthModule_declarations</title>
<polygon fill="none" stroke="black" points="2260,-78 2260,-130 2674,-130 2674,-78 2260,-78"/>
</g>
<g id="clust19" class="cluster">
<title>cluster_AuthModule_imports</title>
<polygon fill="none" stroke="black" points="2104,-78 2104,-130 2252,-130 2252,-78 2104,-78"/>
</g>
<g id="clust20" class="cluster">
<title>cluster_AuthModule_exports</title>
<polygon fill="none" stroke="black" points="2109,-222 2109,-274 2534,-274 2534,-222 2109,-222"/>
</g>
<g id="clust35" class="cluster">
<title>cluster_FeaturesModule</title>
<polygon fill="none" stroke="black" stroke-dasharray="1,5" points="8,-70 8,-138 312,-138 312,-70 8,-70"/>
</g>
<g id="clust36" class="cluster">
<title>cluster_FeaturesModule_declarations</title>
<polygon fill="none" stroke="black" points="16,-78 16,-130 304,-130 304,-78 16,-78"/>
</g>
<g id="clust43" class="cluster">
<title>cluster_PlayersModule</title>
<polygon fill="none" stroke="black" stroke-dasharray="1,5" points="2690,-70 2690,-282 3551,-282 3551,-70 2690,-70"/>
</g>
<g id="clust44" class="cluster">
<title>cluster_PlayersModule_declarations</title>
<polygon fill="none" stroke="black" points="2868,-78 2868,-130 3543,-130 3543,-78 2868,-78"/>
</g>
<g id="clust50" class="cluster">
<title>cluster_PlayersModule_imports</title>
<polygon fill="none" stroke="black" points="2698,-78 2698,-130 2860,-130 2860,-78 2698,-78"/>
</g>
<g id="clust51" class="cluster">
<title>cluster_PlayersModule_exports</title>
<polygon fill="none" stroke="black" points="2718,-222 2718,-274 3412,-274 3412,-222 2718,-222"/>
</g>
<g id="clust60" class="cluster">
<title>cluster_SharedModule</title>
<polygon fill="none" stroke="black" stroke-dasharray="1,5" points="955,-146 955,-214 2088,-214 2088,-146 955,-146"/>
</g>
<g id="clust61" class="cluster">
<title>cluster_SharedModule_declarations</title>
<polygon fill="none" stroke="black" points="1533,-154 1533,-206 2080,-206 2080,-154 1533,-154"/>
</g>
<g id="clust67" class="cluster">
<title>cluster_SharedModule_exports</title>
<polygon fill="none" stroke="black" points="963,-154 963,-206 1525,-206 1525,-154 963,-154"/>
</g>
<!-- AppComponent -->
<g id="node1" class="node">
<title>AppComponent</title>
<polygon fill="#ffffb3" stroke="black" points="930.94,-198 825.06,-198 825.06,-162 930.94,-162 930.94,-198"/>
<text text-anchor="middle" x="878" y="-175.8" font-family="Times,serif" font-size="14.00">AppComponent</text>
</g>
<!-- AppModule -->
<g id="node2" class="node">
<title>AppModule</title>
<polygon fill="#8dd3c7" stroke="black" points="722.66,-266 719.66,-270 698.66,-270 695.66,-266 639.34,-266 639.34,-230 722.66,-230 722.66,-266"/>
<text text-anchor="middle" x="681" y="-243.8" font-family="Times,serif" font-size="14.00">AppModule</text>
</g>
<!-- AppComponent&#45;&gt;AppModule -->
<g id="edge1" class="edge">
<title>AppComponent&#45;&gt;AppModule</title>
<path fill="none" stroke="black" d="M825.11,-186C778.45,-186 717.82,-186 717.82,-186 717.82,-186 717.82,-219.73 717.82,-219.73"/>
<polygon fill="black" stroke="black" points="714.32,-219.73 717.82,-229.73 721.32,-219.73 714.32,-219.73"/>
</g>
<!-- AppComponent  -->
<g id="node6" class="node">
<title>AppComponent </title>
<polygon fill="#80b1d3" stroke="black" points="735.44,-334 626.56,-334 626.56,-298 735.44,-298 735.44,-334"/>
<text text-anchor="middle" x="681" y="-311.8" font-family="Times,serif" font-size="14.00">AppComponent </text>
</g>
<!-- AppModule&#45;&gt;AppComponent  -->
<g id="edge5" class="edge">
<title>AppModule&#45;&gt;AppComponent </title>
<path fill="none" stroke="black" stroke-dasharray="1,5" d="M681,-266.22C681,-266.22 681,-287.73 681,-287.73"/>
<polygon fill="black" stroke="black" points="677.5,-287.73 681,-297.73 684.5,-287.73 677.5,-287.73"/>
</g>
<!-- AppRoutingModule -->
<g id="node3" class="node">
<title>AppRoutingModule</title>
<polygon fill="#8dd3c7" stroke="black" points="684.27,-122 681.27,-126 660.27,-126 657.27,-122 555.73,-122 555.73,-86 684.27,-86 684.27,-122"/>
<text text-anchor="middle" x="620" y="-99.8" font-family="Times,serif" font-size="14.00">AppRoutingModule</text>
</g>
<!-- AppRoutingModule&#45;&gt;AppModule -->
<g id="edge2" class="edge">
<title>AppRoutingModule&#45;&gt;AppModule</title>
<path fill="none" stroke="black" d="M673.44,-122.24C673.44,-122.24 673.44,-219.91 673.44,-219.91"/>
<polygon fill="black" stroke="black" points="669.94,-219.91 673.44,-229.91 676.94,-219.91 669.94,-219.91"/>
</g>
<!-- FeaturesModule -->
<g id="node4" class="node">
<title>FeaturesModule</title>
<polygon fill="#8dd3c7" stroke="black" points="662.47,-198 659.47,-202 638.47,-202 635.47,-198 555.53,-198 555.53,-162 662.47,-162 662.47,-198"/>
<text text-anchor="middle" x="609" y="-175.8" font-family="Times,serif" font-size="14.00">FeaturesModule</text>
</g>
<!-- FeaturesModule&#45;&gt;AppModule -->
<g id="edge3" class="edge">
<title>FeaturesModule&#45;&gt;AppModule</title>
<path fill="none" stroke="black" d="M650.83,-198.22C650.83,-198.22 650.83,-219.73 650.83,-219.73"/>
<polygon fill="black" stroke="black" points="647.33,-219.73 650.83,-229.73 654.33,-219.73 647.33,-219.73"/>
</g>
<!-- SharedModule -->
<g id="node5" class="node">
<title>SharedModule</title>
<polygon fill="#8dd3c7" stroke="black" points="801.42,-122 798.42,-126 777.42,-126 774.42,-122 702.58,-122 702.58,-86 801.42,-86 801.42,-122"/>
<text text-anchor="middle" x="752" y="-99.8" font-family="Times,serif" font-size="14.00">SharedModule</text>
</g>
<!-- SharedModule&#45;&gt;AppModule -->
<g id="edge4" class="edge">
<title>SharedModule&#45;&gt;AppModule</title>
<path fill="none" stroke="black" d="M712.81,-122.24C712.81,-122.24 712.81,-219.91 712.81,-219.91"/>
<polygon fill="black" stroke="black" points="709.31,-219.91 712.81,-229.91 716.31,-219.91 709.31,-219.91"/>
</g>
<!-- SharedModule&#45;&gt;FeaturesModule -->
<g id="edge17" class="edge">
<title>SharedModule&#45;&gt;FeaturesModule</title>
<path fill="none" stroke="black" d="M707.8,-122.03C707.8,-142.77 707.8,-174 707.8,-174 707.8,-174 672.74,-174 672.74,-174"/>
<polygon fill="black" stroke="black" points="672.74,-170.5 662.74,-174 672.74,-177.5 672.74,-170.5"/>
</g>
<!-- AuthModule -->
<g id="node11" class="node">
<title>AuthModule</title>
<polygon fill="#8dd3c7" stroke="black" points="2371.55,-198 2368.55,-202 2347.55,-202 2344.55,-198 2284.45,-198 2284.45,-162 2371.55,-162 2371.55,-198"/>
<text text-anchor="middle" x="2328" y="-175.8" font-family="Times,serif" font-size="14.00">AuthModule</text>
</g>
<!-- SharedModule&#45;&gt;AuthModule -->
<g id="edge11" class="edge">
<title>SharedModule&#45;&gt;AuthModule</title>
<path fill="none" stroke="black" d="M801.28,-90C1043.05,-90 2092.08,-90 2092.08,-90 2092.08,-90 2092.08,-180 2092.08,-180 2092.08,-180 2274.18,-180 2274.18,-180"/>
<polygon fill="black" stroke="black" points="2274.18,-183.5 2284.18,-180 2274.18,-176.5 2274.18,-183.5"/>
</g>
<!-- PlayersModule -->
<g id="node23" class="node">
<title>PlayersModule</title>
<polygon fill="#8dd3c7" stroke="black" points="3124.26,-198 3121.26,-202 3100.26,-202 3097.26,-198 3023.74,-198 3023.74,-162 3124.26,-162 3124.26,-198"/>
<text text-anchor="middle" x="3074" y="-175.8" font-family="Times,serif" font-size="14.00">PlayersModule</text>
</g>
<!-- SharedModule&#45;&gt;PlayersModule -->
<g id="edge24" class="edge">
<title>SharedModule&#45;&gt;PlayersModule</title>
<path fill="none" stroke="black" d="M768.34,-122.24C768.34,-129.43 768.34,-136 768.34,-136 768.34,-136 3057.21,-136 3057.21,-136 3057.21,-136 3057.21,-151.85 3057.21,-151.85"/>
<polygon fill="black" stroke="black" points="3053.71,-151.85 3057.21,-161.85 3060.71,-151.85 3053.71,-151.85"/>
</g>
<!-- FooterComponent  -->
<g id="node34" class="node">
<title>FooterComponent </title>
<polygon fill="#fb8072" stroke="black" points="1235.88,-198 1114.12,-198 1114.12,-162 1235.88,-162 1235.88,-198"/>
<text text-anchor="middle" x="1175" y="-175.8" font-family="Times,serif" font-size="14.00">FooterComponent </text>
</g>
<!-- SharedModule&#45;&gt;FooterComponent  -->
<g id="edge34" class="edge">
<title>SharedModule&#45;&gt;FooterComponent </title>
<path fill="none" stroke="black" stroke-dasharray="5,2" d="M801.35,-115C912.93,-115 1175,-115 1175,-115 1175,-115 1175,-151.89 1175,-151.89"/>
<polygon fill="black" stroke="black" points="1171.5,-151.89 1175,-161.89 1178.5,-151.89 1171.5,-151.89"/>
</g>
<!-- HeaderComponent  -->
<g id="node35" class="node">
<title>HeaderComponent </title>
<polygon fill="#fb8072" stroke="black" points="1096.74,-198 971.26,-198 971.26,-162 1096.74,-162 1096.74,-198"/>
<text text-anchor="middle" x="1034" y="-175.8" font-family="Times,serif" font-size="14.00">HeaderComponent </text>
</g>
<!-- SharedModule&#45;&gt;HeaderComponent  -->
<g id="edge35" class="edge">
<title>SharedModule&#45;&gt;HeaderComponent </title>
<path fill="none" stroke="black" stroke-dasharray="5,2" d="M801.44,-119C882.32,-119 1034,-119 1034,-119 1034,-119 1034,-151.7 1034,-151.7"/>
<polygon fill="black" stroke="black" points="1030.5,-151.7 1034,-161.7 1037.5,-151.7 1030.5,-151.7"/>
</g>
<!-- LoaderComponent  -->
<g id="node36" class="node">
<title>LoaderComponent </title>
<polygon fill="#fb8072" stroke="black" points="1517.48,-198 1392.52,-198 1392.52,-162 1517.48,-162 1517.48,-198"/>
<text text-anchor="middle" x="1455" y="-175.8" font-family="Times,serif" font-size="14.00">LoaderComponent </text>
</g>
<!-- SharedModule&#45;&gt;LoaderComponent  -->
<g id="edge36" class="edge">
<title>SharedModule&#45;&gt;LoaderComponent </title>
<path fill="none" stroke="black" stroke-dasharray="5,2" d="M801.43,-108C961.45,-108 1455,-108 1455,-108 1455,-108 1455,-151.83 1455,-151.83"/>
<polygon fill="black" stroke="black" points="1451.5,-151.83 1455,-161.83 1458.5,-151.83 1451.5,-151.83"/>
</g>
<!-- PlayerComponent  -->
<g id="node37" class="node">
<title>PlayerComponent </title>
<polygon fill="#fb8072" stroke="black" points="1374.1,-198 1253.9,-198 1253.9,-162 1374.1,-162 1374.1,-198"/>
<text text-anchor="middle" x="1314" y="-175.8" font-family="Times,serif" font-size="14.00">PlayerComponent </text>
</g>
<!-- SharedModule&#45;&gt;PlayerComponent  -->
<g id="edge37" class="edge">
<title>SharedModule&#45;&gt;PlayerComponent </title>
<path fill="none" stroke="black" stroke-dasharray="5,2" d="M801.38,-112C938.52,-112 1314,-112 1314,-112 1314,-112 1314,-151.78 1314,-151.78"/>
<polygon fill="black" stroke="black" points="1310.5,-151.78 1314,-161.78 1317.5,-151.78 1310.5,-151.78"/>
</g>
<!-- AddHeaderInterceptor -->
<g id="node7" class="node">
<title>AddHeaderInterceptor</title>
<ellipse fill="#fdb462" stroke="black" cx="434" cy="-180" rx="97.79" ry="18"/>
<text text-anchor="middle" x="434" y="-175.8" font-family="Times,serif" font-size="14.00">AddHeaderInterceptor</text>
</g>
<!-- AddHeaderInterceptor&#45;&gt;AppModule -->
<g id="edge6" class="edge">
<title>AddHeaderInterceptor&#45;&gt;AppModule</title>
<path fill="none" stroke="black" d="M434,-198.22C434,-218.37 434,-248 434,-248 434,-248 629.1,-248 629.1,-248"/>
<polygon fill="black" stroke="black" points="629.1,-251.5 639.1,-248 629.1,-244.5 629.1,-251.5"/>
</g>
<!-- LoginComponent -->
<g id="node8" class="node">
<title>LoginComponent</title>
<polygon fill="#ffffb3" stroke="black" points="2520.28,-122 2405.72,-122 2405.72,-86 2520.28,-86 2520.28,-122"/>
<text text-anchor="middle" x="2463" y="-99.8" font-family="Times,serif" font-size="14.00">LoginComponent</text>
</g>
<!-- LoginComponent&#45;&gt;AuthModule -->
<g id="edge7" class="edge">
<title>LoginComponent&#45;&gt;AuthModule</title>
<path fill="none" stroke="black" d="M2445.37,-122.38C2445.37,-146.28 2445.37,-185 2445.37,-185 2445.37,-185 2381.7,-185 2381.7,-185"/>
<polygon fill="black" stroke="black" points="2381.7,-181.5 2371.7,-185 2381.7,-188.5 2381.7,-181.5"/>
</g>
<!-- ProfileComponent -->
<g id="node9" class="node">
<title>ProfileComponent</title>
<polygon fill="#ffffb3" stroke="black" points="2387.93,-122 2268.07,-122 2268.07,-86 2387.93,-86 2387.93,-122"/>
<text text-anchor="middle" x="2328" y="-99.8" font-family="Times,serif" font-size="14.00">ProfileComponent</text>
</g>
<!-- ProfileComponent&#45;&gt;AuthModule -->
<g id="edge8" class="edge">
<title>ProfileComponent&#45;&gt;AuthModule</title>
<path fill="none" stroke="black" d="M2328,-122.01C2328,-122.01 2328,-151.85 2328,-151.85"/>
<polygon fill="black" stroke="black" points="2324.5,-151.85 2328,-161.85 2331.5,-151.85 2324.5,-151.85"/>
</g>
<!-- RegisterComponent -->
<g id="node10" class="node">
<title>RegisterComponent</title>
<polygon fill="#ffffb3" stroke="black" points="2665.98,-122 2538.02,-122 2538.02,-86 2665.98,-86 2665.98,-122"/>
<text text-anchor="middle" x="2602" y="-99.8" font-family="Times,serif" font-size="14.00">RegisterComponent</text>
</g>
<!-- RegisterComponent&#45;&gt;AuthModule -->
<g id="edge9" class="edge">
<title>RegisterComponent&#45;&gt;AuthModule</title>
<path fill="none" stroke="black" d="M2602,-122.03C2602,-146.98 2602,-189 2602,-189 2602,-189 2381.72,-189 2381.72,-189"/>
<polygon fill="black" stroke="black" points="2381.72,-185.5 2371.72,-189 2381.72,-192.5 2381.72,-185.5"/>
</g>
<!-- LoginComponent  -->
<g id="node13" class="node">
<title>LoginComponent </title>
<polygon fill="#fb8072" stroke="black" points="2526.28,-266 2407.72,-266 2407.72,-230 2526.28,-230 2526.28,-266"/>
<text text-anchor="middle" x="2467" y="-243.8" font-family="Times,serif" font-size="14.00">LoginComponent </text>
</g>
<!-- AuthModule&#45;&gt;LoginComponent  -->
<g id="edge12" class="edge">
<title>AuthModule&#45;&gt;LoginComponent </title>
<path fill="none" stroke="black" stroke-dasharray="5,2" d="M2371.55,-194C2417.36,-194 2482.88,-194 2482.88,-194 2482.88,-194 2482.88,-219.72 2482.88,-219.72"/>
<polygon fill="black" stroke="black" points="2479.38,-219.72 2482.88,-229.72 2486.38,-219.72 2479.38,-219.72"/>
</g>
<!-- ProfileComponent  -->
<g id="node14" class="node">
<title>ProfileComponent </title>
<polygon fill="#fb8072" stroke="black" points="2389.43,-266 2266.57,-266 2266.57,-230 2389.43,-230 2389.43,-266"/>
<text text-anchor="middle" x="2328" y="-243.8" font-family="Times,serif" font-size="14.00">ProfileComponent </text>
</g>
<!-- AuthModule&#45;&gt;ProfileComponent  -->
<g id="edge13" class="edge">
<title>AuthModule&#45;&gt;ProfileComponent </title>
<path fill="none" stroke="black" stroke-dasharray="5,2" d="M2328,-198.22C2328,-198.22 2328,-219.73 2328,-219.73"/>
<polygon fill="black" stroke="black" points="2324.5,-219.73 2328,-229.73 2331.5,-219.73 2324.5,-219.73"/>
</g>
<!-- RegisterComponent  -->
<g id="node15" class="node">
<title>RegisterComponent </title>
<polygon fill="#fb8072" stroke="black" points="2248.99,-266 2117.01,-266 2117.01,-230 2248.99,-230 2248.99,-266"/>
<text text-anchor="middle" x="2183" y="-243.8" font-family="Times,serif" font-size="14.00">RegisterComponent </text>
</g>
<!-- AuthModule&#45;&gt;RegisterComponent  -->
<g id="edge14" class="edge">
<title>AuthModule&#45;&gt;RegisterComponent </title>
<path fill="none" stroke="black" stroke-dasharray="5,2" d="M2284.28,-189C2247.88,-189 2201.97,-189 2201.97,-189 2201.97,-189 2201.97,-219.98 2201.97,-219.98"/>
<polygon fill="black" stroke="black" points="2198.47,-219.98 2201.97,-229.98 2205.47,-219.98 2198.47,-219.98"/>
</g>
<!-- AuthRoutingModule -->
<g id="node12" class="node">
<title>AuthRoutingModule</title>
<polygon fill="#8dd3c7" stroke="black" points="2244.17,-122 2241.17,-126 2220.17,-126 2217.17,-122 2111.83,-122 2111.83,-86 2244.17,-86 2244.17,-122"/>
<text text-anchor="middle" x="2178" y="-99.8" font-family="Times,serif" font-size="14.00">AuthRoutingModule</text>
</g>
<!-- AuthRoutingModule&#45;&gt;AuthModule -->
<g id="edge10" class="edge">
<title>AuthRoutingModule&#45;&gt;AuthModule</title>
<path fill="none" stroke="black" d="M2159.62,-122.31C2159.62,-142.15 2159.62,-171 2159.62,-171 2159.62,-171 2274.2,-171 2274.2,-171"/>
<polygon fill="black" stroke="black" points="2274.2,-174.5 2284.2,-171 2274.2,-167.5 2274.2,-174.5"/>
</g>
<!-- HomeComponent -->
<g id="node16" class="node">
<title>HomeComponent</title>
<polygon fill="#ffffb3" stroke="black" points="295.55,-122 180.45,-122 180.45,-86 295.55,-86 295.55,-122"/>
<text text-anchor="middle" x="238" y="-99.8" font-family="Times,serif" font-size="14.00">HomeComponent</text>
</g>
<!-- HomeComponent&#45;&gt;FeaturesModule -->
<g id="edge15" class="edge">
<title>HomeComponent&#45;&gt;FeaturesModule</title>
<path fill="none" stroke="black" d="M295.86,-104C384.49,-104 543.71,-104 543.71,-104 543.71,-104 543.71,-180 543.71,-180 543.71,-180 545.38,-180 545.38,-180"/>
<polygon fill="black" stroke="black" points="545.38,-183.5 555.38,-180 545.38,-176.5 545.38,-183.5"/>
</g>
<!-- NotFoundComponent -->
<g id="node17" class="node">
<title>NotFoundComponent</title>
<polygon fill="#ffffb3" stroke="black" points="162.11,-122 23.89,-122 23.89,-86 162.11,-86 162.11,-122"/>
<text text-anchor="middle" x="93" y="-99.8" font-family="Times,serif" font-size="14.00">NotFoundComponent</text>
</g>
<!-- NotFoundComponent&#45;&gt;FeaturesModule -->
<g id="edge16" class="edge">
<title>NotFoundComponent&#45;&gt;FeaturesModule</title>
<path fill="none" stroke="black" d="M93,-122.04C93,-134.56 93,-149 93,-149 93,-149 609.05,-149 609.05,-149 609.05,-149 609.05,-151.97 609.05,-151.97"/>
<polygon fill="black" stroke="black" points="605.55,-151.97 609.05,-161.97 612.55,-151.97 605.55,-151.97"/>
</g>
<!-- CatalogComponent -->
<g id="node18" class="node">
<title>CatalogComponent</title>
<polygon fill="#ffffb3" stroke="black" points="3136.38,-122 3011.62,-122 3011.62,-86 3136.38,-86 3136.38,-122"/>
<text text-anchor="middle" x="3074" y="-99.8" font-family="Times,serif" font-size="14.00">CatalogComponent</text>
</g>
<!-- CatalogComponent&#45;&gt;PlayersModule -->
<g id="edge18" class="edge">
<title>CatalogComponent&#45;&gt;PlayersModule</title>
<path fill="none" stroke="black" d="M3090.79,-122.01C3090.79,-122.01 3090.79,-151.85 3090.79,-151.85"/>
<polygon fill="black" stroke="black" points="3087.29,-151.85 3090.79,-161.85 3094.29,-151.85 3087.29,-151.85"/>
</g>
<!-- CreateComponent -->
<g id="node19" class="node">
<title>CreateComponent</title>
<polygon fill="#ffffb3" stroke="black" points="2993.86,-122 2876.14,-122 2876.14,-86 2993.86,-86 2993.86,-122"/>
<text text-anchor="middle" x="2935" y="-99.8" font-family="Times,serif" font-size="14.00">CreateComponent</text>
</g>
<!-- CreateComponent&#45;&gt;PlayersModule -->
<g id="edge19" class="edge">
<title>CreateComponent&#45;&gt;PlayersModule</title>
<path fill="none" stroke="black" d="M2954.64,-122.22C2954.64,-140.83 2954.64,-167 2954.64,-167 2954.64,-167 3013.73,-167 3013.73,-167"/>
<polygon fill="black" stroke="black" points="3013.73,-170.5 3023.73,-167 3013.73,-163.5 3013.73,-170.5"/>
</g>
<!-- DetailsComponent -->
<g id="node20" class="node">
<title>DetailsComponent</title>
<polygon fill="#ffffb3" stroke="black" points="3535.48,-122 3414.52,-122 3414.52,-86 3535.48,-86 3535.48,-122"/>
<text text-anchor="middle" x="3475" y="-99.8" font-family="Times,serif" font-size="14.00">DetailsComponent</text>
</g>
<!-- DetailsComponent&#45;&gt;PlayersModule -->
<g id="edge20" class="edge">
<title>DetailsComponent&#45;&gt;PlayersModule</title>
<path fill="none" stroke="black" d="M3475,-122.01C3475,-144.49 3475,-180 3475,-180 3475,-180 3134.38,-180 3134.38,-180"/>
<polygon fill="black" stroke="black" points="3134.38,-176.5 3124.38,-180 3134.38,-183.5 3134.38,-176.5"/>
</g>
<!-- EditComponent -->
<g id="node21" class="node">
<title>EditComponent</title>
<polygon fill="#ffffb3" stroke="black" points="3396.17,-122 3291.83,-122 3291.83,-86 3396.17,-86 3396.17,-122"/>
<text text-anchor="middle" x="3344" y="-99.8" font-family="Times,serif" font-size="14.00">EditComponent</text>
</g>
<!-- EditComponent&#45;&gt;PlayersModule -->
<g id="edge21" class="edge">
<title>EditComponent&#45;&gt;PlayersModule</title>
<path fill="none" stroke="black" d="M3344,-122.03C3344,-142.77 3344,-174 3344,-174 3344,-174 3134.47,-174 3134.47,-174"/>
<polygon fill="black" stroke="black" points="3134.47,-170.5 3124.47,-174 3134.47,-177.5 3134.47,-170.5"/>
</g>
<!-- SearchComponent -->
<g id="node22" class="node">
<title>SearchComponent</title>
<polygon fill="#ffffb3" stroke="black" points="3273.92,-122 3154.08,-122 3154.08,-86 3273.92,-86 3273.92,-122"/>
<text text-anchor="middle" x="3214" y="-99.8" font-family="Times,serif" font-size="14.00">SearchComponent</text>
</g>
<!-- SearchComponent&#45;&gt;PlayersModule -->
<g id="edge22" class="edge">
<title>SearchComponent&#45;&gt;PlayersModule</title>
<path fill="none" stroke="black" d="M3190.22,-122.17C3190.22,-141.09 3190.22,-168 3190.22,-168 3190.22,-168 3134.3,-168 3134.3,-168"/>
<polygon fill="black" stroke="black" points="3134.3,-164.5 3124.3,-168 3134.3,-171.5 3134.3,-164.5"/>
</g>
<!-- CatalogComponent  -->
<g id="node25" class="node">
<title>CatalogComponent </title>
<polygon fill="#fb8072" stroke="black" points="2994.38,-266 2865.62,-266 2865.62,-230 2994.38,-230 2994.38,-266"/>
<text text-anchor="middle" x="2930" y="-243.8" font-family="Times,serif" font-size="14.00">CatalogComponent </text>
</g>
<!-- PlayersModule&#45;&gt;CatalogComponent  -->
<g id="edge25" class="edge">
<title>PlayersModule&#45;&gt;CatalogComponent </title>
<path fill="none" stroke="black" stroke-dasharray="5,2" d="M3023.37,-180C2976.94,-180 2915.36,-180 2915.36,-180 2915.36,-180 2915.36,-219.78 2915.36,-219.78"/>
<polygon fill="black" stroke="black" points="2911.86,-219.78 2915.36,-229.78 2918.86,-219.78 2911.86,-219.78"/>
</g>
<!-- CreateComponent  -->
<g id="node26" class="node">
<title>CreateComponent </title>
<polygon fill="#fb8072" stroke="black" points="2847.86,-266 2726.14,-266 2726.14,-230 2847.86,-230 2847.86,-266"/>
<text text-anchor="middle" x="2787" y="-243.8" font-family="Times,serif" font-size="14.00">CreateComponent </text>
</g>
<!-- PlayersModule&#45;&gt;CreateComponent  -->
<g id="edge26" class="edge">
<title>PlayersModule&#45;&gt;CreateComponent </title>
<path fill="none" stroke="black" stroke-dasharray="5,2" d="M3023.51,-176C2946.17,-176 2807.23,-176 2807.23,-176 2807.23,-176 2807.23,-219.83 2807.23,-219.83"/>
<polygon fill="black" stroke="black" points="2803.73,-219.83 2807.23,-229.83 2810.73,-219.83 2803.73,-219.83"/>
</g>
<!-- DetailsComponent  -->
<g id="node27" class="node">
<title>DetailsComponent </title>
<polygon fill="#fb8072" stroke="black" points="3404.49,-266 3279.51,-266 3279.51,-230 3404.49,-230 3404.49,-266"/>
<text text-anchor="middle" x="3342" y="-243.8" font-family="Times,serif" font-size="14.00">DetailsComponent </text>
</g>
<!-- PlayersModule&#45;&gt;DetailsComponent  -->
<g id="edge27" class="edge">
<title>PlayersModule&#45;&gt;DetailsComponent </title>
<path fill="none" stroke="black" stroke-dasharray="5,2" d="M3124.44,-186C3187.06,-186 3285.71,-186 3285.71,-186 3285.71,-186 3285.71,-219.73 3285.71,-219.73"/>
<polygon fill="black" stroke="black" points="3282.21,-219.73 3285.71,-229.73 3289.21,-219.73 3282.21,-219.73"/>
</g>
<!-- EditComponent  -->
<g id="node28" class="node">
<title>EditComponent </title>
<polygon fill="#fb8072" stroke="black" points="3262.17,-266 3153.83,-266 3153.83,-230 3262.17,-230 3262.17,-266"/>
<text text-anchor="middle" x="3208" y="-243.8" font-family="Times,serif" font-size="14.00">EditComponent </text>
</g>
<!-- PlayersModule&#45;&gt;EditComponent  -->
<g id="edge28" class="edge">
<title>PlayersModule&#45;&gt;EditComponent </title>
<path fill="none" stroke="black" stroke-dasharray="5,2" d="M3124.66,-192C3168.93,-192 3226.15,-192 3226.15,-192 3226.15,-192 3226.15,-219.97 3226.15,-219.97"/>
<polygon fill="black" stroke="black" points="3222.65,-219.97 3226.15,-229.97 3229.65,-219.97 3222.65,-219.97"/>
</g>
<!-- SearchComponent  -->
<g id="node29" class="node">
<title>SearchComponent </title>
<polygon fill="#fb8072" stroke="black" points="3135.42,-266 3012.58,-266 3012.58,-230 3135.42,-230 3135.42,-266"/>
<text text-anchor="middle" x="3074" y="-243.8" font-family="Times,serif" font-size="14.00">SearchComponent </text>
</g>
<!-- PlayersModule&#45;&gt;SearchComponent  -->
<g id="edge29" class="edge">
<title>PlayersModule&#45;&gt;SearchComponent </title>
<path fill="none" stroke="black" stroke-dasharray="5,2" d="M3074,-198.22C3074,-198.22 3074,-219.73 3074,-219.73"/>
<polygon fill="black" stroke="black" points="3070.5,-219.73 3074,-229.73 3077.5,-219.73 3070.5,-219.73"/>
</g>
<!-- PlayersRoutingModule -->
<g id="node24" class="node">
<title>PlayersRoutingModule</title>
<polygon fill="#8dd3c7" stroke="black" points="2851.88,-122 2848.88,-126 2827.88,-126 2824.88,-122 2706.12,-122 2706.12,-86 2851.88,-86 2851.88,-122"/>
<text text-anchor="middle" x="2779" y="-99.8" font-family="Times,serif" font-size="14.00">PlayersRoutingModule</text>
</g>
<!-- PlayersRoutingModule&#45;&gt;PlayersModule -->
<g id="edge23" class="edge">
<title>PlayersRoutingModule&#45;&gt;PlayersModule</title>
<path fill="none" stroke="black" d="M2766.77,-122.31C2766.77,-142.15 2766.77,-171 2766.77,-171 2766.77,-171 3013.61,-171 3013.61,-171"/>
<polygon fill="black" stroke="black" points="3013.61,-174.5 3023.61,-171 3013.61,-167.5 3013.61,-174.5"/>
</g>
<!-- FooterComponent -->
<g id="node30" class="node">
<title>FooterComponent</title>
<polygon fill="#ffffb3" stroke="black" points="1798.88,-198 1681.12,-198 1681.12,-162 1798.88,-162 1798.88,-198"/>
<text text-anchor="middle" x="1740" y="-175.8" font-family="Times,serif" font-size="14.00">FooterComponent</text>
</g>
<!-- FooterComponent&#45;&gt;SharedModule -->
<g id="edge30" class="edge">
<title>FooterComponent&#45;&gt;SharedModule</title>
<path fill="none" stroke="black" d="M1740,-161.68C1740,-138.34 1740,-101 1740,-101 1740,-101 811.33,-101 811.33,-101"/>
<polygon fill="black" stroke="black" points="811.33,-97.5 801.33,-101 811.33,-104.5 811.33,-97.5"/>
</g>
<!-- HeaderComponent -->
<g id="node31" class="node">
<title>HeaderComponent</title>
<polygon fill="#ffffb3" stroke="black" points="1662.74,-198 1541.26,-198 1541.26,-162 1662.74,-162 1662.74,-198"/>
<text text-anchor="middle" x="1602" y="-175.8" font-family="Times,serif" font-size="14.00">HeaderComponent</text>
</g>
<!-- HeaderComponent&#45;&gt;SharedModule -->
<g id="edge31" class="edge">
<title>HeaderComponent&#45;&gt;SharedModule</title>
<path fill="none" stroke="black" d="M1602,-161.99C1602,-139.51 1602,-104 1602,-104 1602,-104 811.37,-104 811.37,-104"/>
<polygon fill="black" stroke="black" points="811.37,-100.5 801.37,-104 811.37,-107.5 811.37,-100.5"/>
</g>
<!-- LoaderComponent -->
<g id="node32" class="node">
<title>LoaderComponent</title>
<polygon fill="#ffffb3" stroke="black" points="2072.47,-198 1951.53,-198 1951.53,-162 2072.47,-162 2072.47,-198"/>
<text text-anchor="middle" x="2012" y="-175.8" font-family="Times,serif" font-size="14.00">LoaderComponent</text>
</g>
<!-- LoaderComponent&#45;&gt;SharedModule -->
<g id="edge32" class="edge">
<title>LoaderComponent&#45;&gt;SharedModule</title>
<path fill="none" stroke="black" d="M2012,-161.76C2012,-136.52 2012,-94 2012,-94 2012,-94 811.39,-94 811.39,-94"/>
<polygon fill="black" stroke="black" points="811.39,-90.5 801.39,-94 811.39,-97.5 811.39,-90.5"/>
</g>
<!-- PlayerComponent -->
<g id="node33" class="node">
<title>PlayerComponent</title>
<polygon fill="#ffffb3" stroke="black" points="1933.6,-198 1816.4,-198 1816.4,-162 1933.6,-162 1933.6,-198"/>
<text text-anchor="middle" x="1875" y="-175.8" font-family="Times,serif" font-size="14.00">PlayerComponent</text>
</g>
<!-- PlayerComponent&#45;&gt;SharedModule -->
<g id="edge33" class="edge">
<title>PlayerComponent&#45;&gt;SharedModule</title>
<path fill="none" stroke="black" d="M1875,-161.99C1875,-137.58 1875,-97 1875,-97 1875,-97 811.34,-97 811.34,-97"/>
<polygon fill="black" stroke="black" points="811.34,-93.5 801.34,-97 811.34,-100.5 811.34,-93.5"/>
</g>
</g>
</svg>
