<?xml version="1.0" encoding="UTF-8" standalone="no"?>
<!DOCTYPE svg PUBLIC "-//W3C//DTD SVG 1.1//EN"
 "http://www.w3.org/Graphics/SVG/1.1/DTD/svg11.dtd">
<!-- Generated by graphviz version 2.47.0 (20210316.0004)
 -->
<!-- Title: dependencies Pages: 1 -->
<svg width="602pt" height="284pt"
 viewBox="0.00 0.00 602.00 284.00" xmlns="http://www.w3.org/2000/svg" xmlns:xlink="http://www.w3.org/1999/xlink">
<g id="graph0" class="graph" transform="scale(1 1) rotate(0) translate(4 280)">
<title>dependencies</title>
<polygon fill="white" stroke="transparent" points="-4,4 -4,-280 598,-280 598,4 -4,4"/>
<text text-anchor="start" x="276.01" y="-42.4" font-family="Times-12" font-weight="bold" font-size="14.00">Legend</text>
<polygon fill="#ffffb3" stroke="transparent" points="63,-10 63,-30 83,-30 83,-10 63,-10"/>
<text text-anchor="start" x="86.63" y="-15.4" font-family="Times-12" font-size="14.00"> &#160;Declarations</text>
<polygon fill="#8dd3c7" stroke="transparent" points="176,-10 176,-30 196,-30 196,-10 176,-10"/>
<text text-anchor="start" x="199.73" y="-15.4" font-family="Times-12" font-size="14.00"> &#160;Module</text>
<polygon fill="#80b1d3" stroke="transparent" points="262,-10 262,-30 282,-30 282,-10 262,-10"/>
<text text-anchor="start" x="285.78" y="-15.4" font-family="Times-12" font-size="14.00"> &#160;Bootstrap</text>
<polygon fill="#fdb462" stroke="transparent" points="359,-10 359,-30 379,-30 379,-10 359,-10"/>
<text text-anchor="start" x="382.67" y="-15.4" font-family="Times-12" font-size="14.00"> &#160;Providers</text>
<polygon fill="#fb8072" stroke="transparent" points="455,-10 455,-30 475,-30 475,-10 455,-10"/>
<text text-anchor="start" x="478.73" y="-15.4" font-family="Times-12" font-size="14.00"> &#160;Exports</text>
<g id="clust1" class="cluster">
<title>cluster_SharedModule</title>
<polygon fill="none" stroke="black" stroke-dasharray="1,5" points="8,-70 8,-268 586,-268 586,-70 8,-70"/>
</g>
<g id="clust8" class="cluster">
<title>cluster_SharedModule_exports</title>
<polygon fill="none" stroke="black" points="16,-208 16,-260 578,-260 578,-208 16,-208"/>
</g>
<g id="clust2" class="cluster">
<title>cluster_SharedModule_declarations</title>
<polygon fill="none" stroke="black" points="24,-78 24,-130 572,-130 572,-78 24,-78"/>
</g>
<!-- FooterComponent -->
<g id="node1" class="node">
<title>FooterComponent</title>
<polygon fill="#ffffb3" stroke="black" points="563.88,-122 446.12,-122 446.12,-86 563.88,-86 563.88,-122"/>
<text text-anchor="middle" x="505" y="-99.8" font-family="Times,serif" font-size="14.00">FooterComponent</text>
</g>
<!-- SharedModule -->
<g id="node5" class="node">
<title>SharedModule</title>
<polygon fill="#8dd3c7" stroke="black" points="279.42,-187 276.42,-191 255.42,-191 252.42,-187 180.58,-187 180.58,-151 279.42,-151 279.42,-187"/>
<text text-anchor="middle" x="230" y="-164.8" font-family="Times,serif" font-size="14.00">SharedModule</text>
</g>
<!-- FooterComponent&#45;&gt;SharedModule -->
<g id="edge1" class="edge">
<title>FooterComponent&#45;&gt;SharedModule</title>
<path fill="none" stroke="black" d="M525.4,-122.27C525.4,-140.56 525.4,-166 525.4,-166 525.4,-166 289.44,-166 289.44,-166"/>
<polygon fill="black" stroke="black" points="289.44,-162.5 279.44,-166 289.44,-169.5 289.44,-162.5"/>
</g>
<!-- HeaderComponent -->
<g id="node2" class="node">
<title>HeaderComponent</title>
<polygon fill="#ffffb3" stroke="black" points="427.74,-122 306.26,-122 306.26,-86 427.74,-86 427.74,-122"/>
<text text-anchor="middle" x="367" y="-99.8" font-family="Times,serif" font-size="14.00">HeaderComponent</text>
</g>
<!-- HeaderComponent&#45;&gt;SharedModule -->
<g id="edge2" class="edge">
<title>HeaderComponent&#45;&gt;SharedModule</title>
<path fill="none" stroke="black" d="M387.29,-122.01C387.29,-138.05 387.29,-159 387.29,-159 387.29,-159 289.34,-159 289.34,-159"/>
<polygon fill="black" stroke="black" points="289.34,-155.5 279.34,-159 289.34,-162.5 289.34,-155.5"/>
</g>
<!-- LoaderComponent -->
<g id="node3" class="node">
<title>LoaderComponent</title>
<polygon fill="#ffffb3" stroke="black" points="288.47,-122 167.53,-122 167.53,-86 288.47,-86 288.47,-122"/>
<text text-anchor="middle" x="228" y="-99.8" font-family="Times,serif" font-size="14.00">LoaderComponent</text>
</g>
<!-- LoaderComponent&#45;&gt;SharedModule -->
<g id="edge3" class="edge">
<title>LoaderComponent&#45;&gt;SharedModule</title>
<path fill="none" stroke="black" d="M230,-122.11C230,-122.11 230,-140.99 230,-140.99"/>
<polygon fill="black" stroke="black" points="226.5,-140.99 230,-150.99 233.5,-140.99 226.5,-140.99"/>
</g>
<!-- PlayerComponent -->
<g id="node4" class="node">
<title>PlayerComponent</title>
<polygon fill="#ffffb3" stroke="black" points="149.6,-122 32.4,-122 32.4,-86 149.6,-86 149.6,-122"/>
<text text-anchor="middle" x="91" y="-99.8" font-family="Times,serif" font-size="14.00">PlayerComponent</text>
</g>
<!-- PlayerComponent&#45;&gt;SharedModule -->
<g id="edge4" class="edge">
<title>PlayerComponent&#45;&gt;SharedModule</title>
<path fill="none" stroke="black" d="M107.02,-122.02C107.02,-139.37 107.02,-163 107.02,-163 107.02,-163 170.69,-163 170.69,-163"/>
<polygon fill="black" stroke="black" points="170.69,-166.5 180.69,-163 170.69,-159.5 170.69,-166.5"/>
</g>
<!-- FooterComponent  -->
<g id="node6" class="node">
<title>FooterComponent </title>
<polygon fill="#fb8072" stroke="black" points="569.88,-252 448.12,-252 448.12,-216 569.88,-216 569.88,-252"/>
<text text-anchor="middle" x="509" y="-229.8" font-family="Times,serif" font-size="14.00">FooterComponent </text>
</g>
<!-- SharedModule&#45;&gt;FooterComponent  -->
<g id="edge5" class="edge">
<title>SharedModule&#45;&gt;FooterComponent </title>
<path fill="none" stroke="black" stroke-dasharray="5,2" d="M279.22,-173C353.8,-173 486.85,-173 486.85,-173 486.85,-173 486.85,-205.7 486.85,-205.7"/>
<polygon fill="black" stroke="black" points="483.35,-205.7 486.85,-215.7 490.35,-205.7 483.35,-205.7"/>
</g>
<!-- HeaderComponent  -->
<g id="node7" class="node">
<title>HeaderComponent </title>
<polygon fill="#fb8072" stroke="black" points="430.74,-252 305.26,-252 305.26,-216 430.74,-216 430.74,-252"/>
<text text-anchor="middle" x="368" y="-229.8" font-family="Times,serif" font-size="14.00">HeaderComponent </text>
</g>
<!-- SharedModule&#45;&gt;HeaderComponent  -->
<g id="edge6" class="edge">
<title>SharedModule&#45;&gt;HeaderComponent </title>
<path fill="none" stroke="black" stroke-dasharray="5,2" d="M279.5,-180C311.3,-180 346.71,-180 346.71,-180 346.71,-180 346.71,-205.72 346.71,-205.72"/>
<polygon fill="black" stroke="black" points="343.21,-205.72 346.71,-215.72 350.21,-205.72 343.21,-205.72"/>
</g>
<!-- LoaderComponent  -->
<g id="node8" class="node">
<title>LoaderComponent </title>
<polygon fill="#fb8072" stroke="black" points="287.48,-252 162.52,-252 162.52,-216 287.48,-216 287.48,-252"/>
<text text-anchor="middle" x="225" y="-229.8" font-family="Times,serif" font-size="14.00">LoaderComponent </text>
</g>
<!-- SharedModule&#45;&gt;LoaderComponent  -->
<g id="edge7" class="edge">
<title>SharedModule&#45;&gt;LoaderComponent </title>
<path fill="none" stroke="black" stroke-dasharray="5,2" d="M230,-187.11C230,-187.11 230,-205.99 230,-205.99"/>
<polygon fill="black" stroke="black" points="226.5,-205.99 230,-215.99 233.5,-205.99 226.5,-205.99"/>
</g>
<!-- PlayerComponent  -->
<g id="node9" class="node">
<title>PlayerComponent </title>
<polygon fill="#fb8072" stroke="black" points="144.1,-252 23.9,-252 23.9,-216 144.1,-216 144.1,-252"/>
<text text-anchor="middle" x="84" y="-229.8" font-family="Times,serif" font-size="14.00">PlayerComponent </text>
</g>
<!-- SharedModule&#45;&gt;PlayerComponent  -->
<g id="edge8" class="edge">
<title>SharedModule&#45;&gt;PlayerComponent </title>
<path fill="none" stroke="black" stroke-dasharray="5,2" d="M180.61,-175C133.52,-175 69.73,-175 69.73,-175 69.73,-175 69.73,-205.98 69.73,-205.98"/>
<polygon fill="black" stroke="black" points="66.23,-205.98 69.73,-215.98 73.23,-205.98 66.23,-205.98"/>
</g>
</g>
</svg>
