<?xml version="1.0" encoding="UTF-8" standalone="no"?>
<!DOCTYPE svg PUBLIC "-//W3C//DTD SVG 1.1//EN"
 "http://www.w3.org/Graphics/SVG/1.1/DTD/svg11.dtd">
<!-- Generated by graphviz version 2.47.0 (20210316.0004)
 -->
<!-- Title: dependencies Pages: 1 -->
<svg width="1001pt" height="284pt"
 viewBox="0.00 0.00 1001.00 284.00" xmlns="http://www.w3.org/2000/svg" xmlns:xlink="http://www.w3.org/1999/xlink">
<g id="graph0" class="graph" transform="scale(1 1) rotate(0) translate(4 280)">
<title>dependencies</title>
<polygon fill="white" stroke="transparent" points="-4,4 -4,-280 997,-280 997,4 -4,4"/>
<text text-anchor="start" x="475.51" y="-42.4" font-family="Times-12" font-weight="bold" font-size="14.00">Legend</text>
<polygon fill="#ffffb3" stroke="transparent" points="262.5,-10 262.5,-30 282.5,-30 282.5,-10 262.5,-10"/>
<text text-anchor="start" x="286.13" y="-15.4" font-family="Times-12" font-size="14.00"> &#160;Declarations</text>
<polygon fill="#8dd3c7" stroke="transparent" points="375.5,-10 375.5,-30 395.5,-30 395.5,-10 375.5,-10"/>
<text text-anchor="start" x="399.23" y="-15.4" font-family="Times-12" font-size="14.00"> &#160;Module</text>
<polygon fill="#80b1d3" stroke="transparent" points="461.5,-10 461.5,-30 481.5,-30 481.5,-10 461.5,-10"/>
<text text-anchor="start" x="485.28" y="-15.4" font-family="Times-12" font-size="14.00"> &#160;Bootstrap</text>
<polygon fill="#fdb462" stroke="transparent" points="558.5,-10 558.5,-30 578.5,-30 578.5,-10 558.5,-10"/>
<text text-anchor="start" x="582.17" y="-15.4" font-family="Times-12" font-size="14.00"> &#160;Providers</text>
<polygon fill="#fb8072" stroke="transparent" points="654.5,-10 654.5,-30 674.5,-30 674.5,-10 654.5,-10"/>
<text text-anchor="start" x="678.23" y="-15.4" font-family="Times-12" font-size="14.00"> &#160;Exports</text>
<g id="clust1" class="cluster">
<title>cluster_PlayersModule</title>
<polygon fill="none" stroke="black" stroke-dasharray="1,5" points="8,-70 8,-268 985,-268 985,-70 8,-70"/>
</g>
<g id="clust8" class="cluster">
<title>cluster_PlayersModule_imports</title>
<polygon fill="none" stroke="black" points="699,-78 699,-130 977,-130 977,-78 699,-78"/>
</g>
<g id="clust2" class="cluster">
<title>cluster_PlayersModule_declarations</title>
<polygon fill="none" stroke="black" points="16,-78 16,-130 691,-130 691,-78 16,-78"/>
</g>
<g id="clust9" class="cluster">
<title>cluster_PlayersModule_exports</title>
<polygon fill="none" stroke="black" points="145,-208 145,-260 838,-260 838,-208 145,-208"/>
</g>
<!-- CatalogComponent -->
<g id="node1" class="node">
<title>CatalogComponent</title>
<polygon fill="#ffffb3" stroke="black" points="683.38,-122 558.62,-122 558.62,-86 683.38,-86 683.38,-122"/>
<text text-anchor="middle" x="621" y="-99.8" font-family="Times,serif" font-size="14.00">CatalogComponent</text>
</g>
<!-- PlayersModule -->
<g id="node6" class="node">
<title>PlayersModule</title>
<polygon fill="#8dd3c7" stroke="black" points="532.26,-187 529.26,-191 508.26,-191 505.26,-187 431.74,-187 431.74,-151 532.26,-151 532.26,-187"/>
<text text-anchor="middle" x="482" y="-164.8" font-family="Times,serif" font-size="14.00">PlayersModule</text>
</g>
<!-- CatalogComponent&#45;&gt;PlayersModule -->
<g id="edge1" class="edge">
<title>CatalogComponent&#45;&gt;PlayersModule</title>
<path fill="none" stroke="black" d="M643.07,-122.24C643.07,-137.57 643.07,-157 643.07,-157 643.07,-157 542.52,-157 542.52,-157"/>
<polygon fill="black" stroke="black" points="542.52,-153.5 532.52,-157 542.52,-160.5 542.52,-153.5"/>
</g>
<!-- CreateComponent -->
<g id="node2" class="node">
<title>CreateComponent</title>
<polygon fill="#ffffb3" stroke="black" points="540.86,-122 423.14,-122 423.14,-86 540.86,-86 540.86,-122"/>
<text text-anchor="middle" x="482" y="-99.8" font-family="Times,serif" font-size="14.00">CreateComponent</text>
</g>
<!-- CreateComponent&#45;&gt;PlayersModule -->
<g id="edge2" class="edge">
<title>CreateComponent&#45;&gt;PlayersModule</title>
<path fill="none" stroke="black" d="M482,-122.11C482,-122.11 482,-140.99 482,-140.99"/>
<polygon fill="black" stroke="black" points="478.5,-140.99 482,-150.99 485.5,-140.99 478.5,-140.99"/>
</g>
<!-- DetailsComponent -->
<g id="node3" class="node">
<title>DetailsComponent</title>
<polygon fill="#ffffb3" stroke="black" points="405.48,-122 284.52,-122 284.52,-86 405.48,-86 405.48,-122"/>
<text text-anchor="middle" x="345" y="-99.8" font-family="Times,serif" font-size="14.00">DetailsComponent</text>
</g>
<!-- DetailsComponent&#45;&gt;PlayersModule -->
<g id="edge3" class="edge">
<title>DetailsComponent&#45;&gt;PlayersModule</title>
<path fill="none" stroke="black" d="M329.97,-122.24C329.97,-137.57 329.97,-157 329.97,-157 329.97,-157 421.38,-157 421.38,-157"/>
<polygon fill="black" stroke="black" points="421.38,-160.5 431.38,-157 421.38,-153.5 421.38,-160.5"/>
</g>
<!-- EditComponent -->
<g id="node4" class="node">
<title>EditComponent</title>
<polygon fill="#ffffb3" stroke="black" points="266.17,-122 161.83,-122 161.83,-86 266.17,-86 266.17,-122"/>
<text text-anchor="middle" x="214" y="-99.8" font-family="Times,serif" font-size="14.00">EditComponent</text>
</g>
<!-- EditComponent&#45;&gt;PlayersModule -->
<g id="edge4" class="edge">
<title>EditComponent&#45;&gt;PlayersModule</title>
<path fill="none" stroke="black" d="M214,-122.02C214,-139.37 214,-163 214,-163 214,-163 421.59,-163 421.59,-163"/>
<polygon fill="black" stroke="black" points="421.59,-166.5 431.59,-163 421.59,-159.5 421.59,-166.5"/>
</g>
<!-- SearchComponent -->
<g id="node5" class="node">
<title>SearchComponent</title>
<polygon fill="#ffffb3" stroke="black" points="143.92,-122 24.08,-122 24.08,-86 143.92,-86 143.92,-122"/>
<text text-anchor="middle" x="84" y="-99.8" font-family="Times,serif" font-size="14.00">SearchComponent</text>
</g>
<!-- SearchComponent&#45;&gt;PlayersModule -->
<g id="edge5" class="edge">
<title>SearchComponent&#45;&gt;PlayersModule</title>
<path fill="none" stroke="black" d="M84,-122.11C84,-141.34 84,-169 84,-169 84,-169 421.59,-169 421.59,-169"/>
<polygon fill="black" stroke="black" points="421.59,-172.5 431.59,-169 421.59,-165.5 421.59,-172.5"/>
</g>
<!-- CatalogComponent  -->
<g id="node9" class="node">
<title>CatalogComponent </title>
<polygon fill="#fb8072" stroke="black" points="830.38,-252 701.62,-252 701.62,-216 830.38,-216 830.38,-252"/>
<text text-anchor="middle" x="766" y="-229.8" font-family="Times,serif" font-size="14.00">CatalogComponent </text>
</g>
<!-- PlayersModule&#45;&gt;CatalogComponent  -->
<g id="edge8" class="edge">
<title>PlayersModule&#45;&gt;CatalogComponent </title>
<path fill="none" stroke="black" stroke-dasharray="5,2" d="M532.28,-175C607.24,-175 739.6,-175 739.6,-175 739.6,-175 739.6,-205.98 739.6,-205.98"/>
<polygon fill="black" stroke="black" points="736.1,-205.98 739.6,-215.98 743.1,-205.98 736.1,-205.98"/>
</g>
<!-- CreateComponent  -->
<g id="node10" class="node">
<title>CreateComponent </title>
<polygon fill="#fb8072" stroke="black" points="683.86,-252 562.14,-252 562.14,-216 683.86,-216 683.86,-252"/>
<text text-anchor="middle" x="623" y="-229.8" font-family="Times,serif" font-size="14.00">CreateComponent </text>
</g>
<!-- PlayersModule&#45;&gt;CreateComponent  -->
<g id="edge9" class="edge">
<title>PlayersModule&#45;&gt;CreateComponent </title>
<path fill="none" stroke="black" stroke-dasharray="5,2" d="M532.48,-181C565.56,-181 602.69,-181 602.69,-181 602.69,-181 602.69,-205.76 602.69,-205.76"/>
<polygon fill="black" stroke="black" points="599.19,-205.76 602.69,-215.76 606.19,-205.76 599.19,-205.76"/>
</g>
<!-- DetailsComponent  -->
<g id="node11" class="node">
<title>DetailsComponent </title>
<polygon fill="#fb8072" stroke="black" points="544.49,-252 419.51,-252 419.51,-216 544.49,-216 544.49,-252"/>
<text text-anchor="middle" x="482" y="-229.8" font-family="Times,serif" font-size="14.00">DetailsComponent </text>
</g>
<!-- PlayersModule&#45;&gt;DetailsComponent  -->
<g id="edge10" class="edge">
<title>PlayersModule&#45;&gt;DetailsComponent </title>
<path fill="none" stroke="black" stroke-dasharray="5,2" d="M482,-187.11C482,-187.11 482,-205.99 482,-205.99"/>
<polygon fill="black" stroke="black" points="478.5,-205.99 482,-215.99 485.5,-205.99 478.5,-205.99"/>
</g>
<!-- EditComponent  -->
<g id="node12" class="node">
<title>EditComponent </title>
<polygon fill="#fb8072" stroke="black" points="402.17,-252 293.83,-252 293.83,-216 402.17,-216 402.17,-252"/>
<text text-anchor="middle" x="348" y="-229.8" font-family="Times,serif" font-size="14.00">EditComponent </text>
</g>
<!-- PlayersModule&#45;&gt;EditComponent  -->
<g id="edge11" class="edge">
<title>PlayersModule&#45;&gt;EditComponent </title>
<path fill="none" stroke="black" stroke-dasharray="5,2" d="M431.47,-181C400.22,-181 366.03,-181 366.03,-181 366.03,-181 366.03,-205.76 366.03,-205.76"/>
<polygon fill="black" stroke="black" points="362.53,-205.76 366.03,-215.76 369.53,-205.76 362.53,-205.76"/>
</g>
<!-- SearchComponent  -->
<g id="node13" class="node">
<title>SearchComponent </title>
<polygon fill="#fb8072" stroke="black" points="275.42,-252 152.58,-252 152.58,-216 275.42,-216 275.42,-252"/>
<text text-anchor="middle" x="214" y="-229.8" font-family="Times,serif" font-size="14.00">SearchComponent </text>
</g>
<!-- PlayersModule&#45;&gt;SearchComponent  -->
<g id="edge12" class="edge">
<title>PlayersModule&#45;&gt;SearchComponent </title>
<path fill="none" stroke="black" stroke-dasharray="5,2" d="M431.7,-175C369.26,-175 270.9,-175 270.9,-175 270.9,-175 270.9,-205.98 270.9,-205.98"/>
<polygon fill="black" stroke="black" points="267.4,-205.98 270.9,-215.98 274.4,-205.98 267.4,-205.98"/>
</g>
<!-- PlayersRoutingModule -->
<g id="node7" class="node">
<title>PlayersRoutingModule</title>
<polygon fill="#8dd3c7" stroke="black" points="968.88,-122 965.88,-126 944.88,-126 941.88,-122 823.12,-122 823.12,-86 968.88,-86 968.88,-122"/>
<text text-anchor="middle" x="896" y="-99.8" font-family="Times,serif" font-size="14.00">PlayersRoutingModule</text>
</g>
<!-- PlayersRoutingModule&#45;&gt;PlayersModule -->
<g id="edge6" class="edge">
<title>PlayersRoutingModule&#45;&gt;PlayersModule</title>
<path fill="none" stroke="black" d="M826.63,-122.11C826.63,-141.34 826.63,-169 826.63,-169 826.63,-169 542.48,-169 542.48,-169"/>
<polygon fill="black" stroke="black" points="542.48,-165.5 532.48,-169 542.48,-172.5 542.48,-165.5"/>
</g>
<!-- SharedModule -->
<g id="node8" class="node">
<title>SharedModule</title>
<polygon fill="#8dd3c7" stroke="black" points="805.42,-122 802.42,-126 781.42,-126 778.42,-122 706.58,-122 706.58,-86 805.42,-86 805.42,-122"/>
<text text-anchor="middle" x="756" y="-99.8" font-family="Times,serif" font-size="14.00">SharedModule</text>
</g>
<!-- SharedModule&#45;&gt;PlayersModule -->
<g id="edge7" class="edge">
<title>SharedModule&#45;&gt;PlayersModule</title>
<path fill="none" stroke="black" d="M772.4,-122.02C772.4,-139.37 772.4,-163 772.4,-163 772.4,-163 542.58,-163 542.58,-163"/>
<polygon fill="black" stroke="black" points="542.58,-159.5 532.58,-163 542.58,-166.5 542.58,-159.5"/>
</g>
</g>
</svg>
