<?xml version="1.0" encoding="UTF-8" standalone="no"?>
<!DOCTYPE svg PUBLIC "-//W3C//DTD SVG 1.1//EN"
 "http://www.w3.org/Graphics/SVG/1.1/DTD/svg11.dtd">
<!-- Generated by graphviz version 2.47.0 (20210316.0004)
 -->
<!-- Title: dependencies Pages: 1 -->
<svg width="504pt" height="211pt"
 viewBox="0.00 0.00 504.00 211.00" xmlns="http://www.w3.org/2000/svg" xmlns:xlink="http://www.w3.org/1999/xlink">
<g id="graph0" class="graph" transform="scale(1 1) rotate(0) translate(4 207)">
<title>dependencies</title>
<polygon fill="white" stroke="transparent" points="-4,4 -4,-207 500,-207 500,4 -4,4"/>
<text text-anchor="start" x="227.01" y="-42.4" font-family="Times-12" font-weight="bold" font-size="14.00">Legend</text>
<polygon fill="#ffffb3" stroke="transparent" points="14,-10 14,-30 34,-30 34,-10 14,-10"/>
<text text-anchor="start" x="37.63" y="-15.4" font-family="Times-12" font-size="14.00"> &#160;Declarations</text>
<polygon fill="#8dd3c7" stroke="transparent" points="127,-10 127,-30 147,-30 147,-10 127,-10"/>
<text text-anchor="start" x="150.73" y="-15.4" font-family="Times-12" font-size="14.00"> &#160;Module</text>
<polygon fill="#80b1d3" stroke="transparent" points="213,-10 213,-30 233,-30 233,-10 213,-10"/>
<text text-anchor="start" x="236.78" y="-15.4" font-family="Times-12" font-size="14.00"> &#160;Bootstrap</text>
<polygon fill="#fdb462" stroke="transparent" points="310,-10 310,-30 330,-30 330,-10 310,-10"/>
<text text-anchor="start" x="333.67" y="-15.4" font-family="Times-12" font-size="14.00"> &#160;Providers</text>
<polygon fill="#fb8072" stroke="transparent" points="406,-10 406,-30 426,-30 426,-10 406,-10"/>
<text text-anchor="start" x="429.73" y="-15.4" font-family="Times-12" font-size="14.00"> &#160;Exports</text>
<g id="clust1" class="cluster">
<title>cluster_FeaturesModule</title>
<polygon fill="none" stroke="black" stroke-dasharray="1,5" points="35,-70 35,-195 461,-195 461,-70 35,-70"/>
</g>
<g id="clust2" class="cluster">
<title>cluster_FeaturesModule_declarations</title>
<polygon fill="none" stroke="black" points="165,-78 165,-130 453,-130 453,-78 165,-78"/>
</g>
<g id="clust5" class="cluster">
<title>cluster_FeaturesModule_imports</title>
<polygon fill="none" stroke="black" points="43,-78 43,-130 157,-130 157,-78 43,-78"/>
</g>
<!-- HomeComponent -->
<g id="node1" class="node">
<title>HomeComponent</title>
<polygon fill="#ffffb3" stroke="black" points="444.55,-122 329.45,-122 329.45,-86 444.55,-86 444.55,-122"/>
<text text-anchor="middle" x="387" y="-99.8" font-family="Times,serif" font-size="14.00">HomeComponent</text>
</g>
<!-- FeaturesModule -->
<g id="node3" class="node">
<title>FeaturesModule</title>
<polygon fill="#8dd3c7" stroke="black" points="295.47,-187 292.47,-191 271.47,-191 268.47,-187 188.53,-187 188.53,-151 295.47,-151 295.47,-187"/>
<text text-anchor="middle" x="242" y="-164.8" font-family="Times,serif" font-size="14.00">FeaturesModule</text>
</g>
<!-- HomeComponent&#45;&gt;FeaturesModule -->
<g id="edge1" class="edge">
<title>HomeComponent&#45;&gt;FeaturesModule</title>
<path fill="none" stroke="black" d="M387,-122.11C387,-141.34 387,-169 387,-169 387,-169 305.58,-169 305.58,-169"/>
<polygon fill="black" stroke="black" points="305.58,-165.5 295.58,-169 305.58,-172.5 305.58,-165.5"/>
</g>
<!-- NotFoundComponent -->
<g id="node2" class="node">
<title>NotFoundComponent</title>
<polygon fill="#ffffb3" stroke="black" points="311.11,-122 172.89,-122 172.89,-86 311.11,-86 311.11,-122"/>
<text text-anchor="middle" x="242" y="-99.8" font-family="Times,serif" font-size="14.00">NotFoundComponent</text>
</g>
<!-- NotFoundComponent&#45;&gt;FeaturesModule -->
<g id="edge2" class="edge">
<title>NotFoundComponent&#45;&gt;FeaturesModule</title>
<path fill="none" stroke="black" d="M242,-122.11C242,-122.11 242,-140.99 242,-140.99"/>
<polygon fill="black" stroke="black" points="238.5,-140.99 242,-150.99 245.5,-140.99 238.5,-140.99"/>
</g>
<!-- SharedModule -->
<g id="node4" class="node">
<title>SharedModule</title>
<polygon fill="#8dd3c7" stroke="black" points="149.42,-122 146.42,-126 125.42,-126 122.42,-122 50.58,-122 50.58,-86 149.42,-86 149.42,-122"/>
<text text-anchor="middle" x="100" y="-99.8" font-family="Times,serif" font-size="14.00">SharedModule</text>
</g>
<!-- SharedModule&#45;&gt;FeaturesModule -->
<g id="edge3" class="edge">
<title>SharedModule&#45;&gt;FeaturesModule</title>
<path fill="none" stroke="black" d="M100,-122.11C100,-141.34 100,-169 100,-169 100,-169 178.32,-169 178.32,-169"/>
<polygon fill="black" stroke="black" points="178.32,-172.5 188.32,-169 178.32,-165.5 178.32,-172.5"/>
</g>
</g>
</svg>
